<svg xmlns="http://www.w3.org/2000/svg" width="100%" height="100%" fill="none" viewBox="0 0 89 32"><path fill="currentColor" d="M52.308 3.07812H57.8465V4.92428H56.0003V6.77043H54.1541V10.4627H57.8465V12.3089H54.1541V25.232H52.308V27.0781H46.7695V25.232H48.6157V12.3089H46.7695V10.4627H48.6157V6.77043H50.4618V4.92428H52.308V3.07812Z"/><path fill="currentColor" d="M79.3849 23.3858H81.2311V25.232H83.0772V27.0781H88.6157V25.232H86.7695V23.3858H84.9234V4.92428H79.3849V23.3858Z"/><path fill="currentColor" d="M57.8465 14.155H59.6926V12.3089H61.5388V10.4627H70.7695V12.3089H74.4618V23.3858H76.308V25.232H78.1541V27.0781H72.6157V25.232H70.7695V23.3858H68.9234V14.155H67.0772V12.3089H65.2311V14.155H63.3849V23.3858H65.2311V25.232H67.0772V27.0781H61.5388V25.232H59.6926V23.3858H57.8465V14.155Z"/><path fill="currentColor" d="M67.0772 25.232V23.3858H68.9234V25.232H67.0772Z"/><rect width="2.462" height="2.462" x="7.385" y="29.539" fill="#5F4CD9" opacity=".22"/><rect width="12.308" height="2.462" x="2.461" y="19.691" fill="#5F4CD9" opacity=".85"/><rect width="9.846" height="2.462" x="4.924" y="17.23" fill="#5F4CD9"/><rect width="4.923" height="2.462" x="7.385" y="27.078" fill="#5F4CD9" opacity=".4"/><rect width="14.769" height="2.462" y="22.156" fill="#5F4CD9" opacity=".7"/><rect width="7.385" height="2.462" x="7.385" y="24.613" fill="#5F4CD9" opacity=".5"/><rect width="2.462" height="2.462" x="7.385" y="12.309" fill="#5F4CD9" opacity=".22"/><rect width="12.308" height="2.462" x="2.461" y="2.461" fill="#5F4CD9" opacity=".85"/><rect width="9.846" height="2.462" x="4.924" fill="#5F4CD9"/><rect width="4.923" height="2.462" x="7.385" y="9.844" fill="#5F4CD9" opacity=".4"/><rect width="14.769" height="2.462" y="4.922" fill="#5F4CD9" opacity=".7"/><rect width="7.385" height="2.462" x="7.385" y="7.383" fill="#5F4CD9" opacity=".5"/><rect width="2.462" height="2.462" x="24.615" y="29.539" fill="#5F4CD9" opacity=".22"/><rect width="12.308" height="2.462" x="19.691" y="19.691" fill="#5F4CD9" opacity=".85"/><rect width="9.846" height="2.462" x="22.154" y="17.23" fill="#5F4CD9"/><rect width="4.923" height="2.462" x="24.615" y="27.078" fill="#5F4CD9" opacity=".4"/><rect width="14.769" height="2.462" x="17.23" y="22.156" fill="#5F4CD9" opacity=".7"/><rect width="7.385" height="2.462" x="24.615" y="24.613" fill="#5F4CD9" opacity=".5"/><rect width="2.462" height="2.462" x="24.615" y="12.309" fill="#5F4CD9" opacity=".22"/><rect width="12.308" height="2.462" x="19.691" y="2.461" fill="#5F4CD9" opacity=".85"/><rect width="9.846" height="2.462" x="22.154" fill="#5F4CD9"/><rect width="4.923" height="2.462" x="24.615" y="9.844" fill="#5F4CD9" opacity=".4"/><rect width="14.769" height="2.462" x="17.23" y="4.922" fill="#5F4CD9" opacity=".7"/><rect width="7.385" height="2.462" x="24.615" y="7.383" fill="#5F4CD9" opacity=".5"/></svg>